<?xml version="1.0" encoding="UTF-8" ?>
<svg xmlns="http://www.w3.org/2000/svg" xmlns:xlink="http://www.w3.org/1999/xlink" height="600" width="520">
  <g id="background">
    <polygon points="260,600 0.2,450 0.2,150 260,0 519.8,150 519.8,450" style="fill:#C04384;" />
    <polygon points="260,585 13.2,442.5 13.2,157.5 260,15 506.8,157.5 506.8 442.5" style="fill:white;" />
    <polygon points="260,30 26.2,165 26.2,300 493.8,300 493.8,165" style="fill:#C04384;" />
  </g>
  <g id="package: checklist">
    <path style="fill:#3C3D00"  d="M 63.96 353.48 L 66.06 353.52 L 68.09 353.63 L 70.06 353.81 L 71.96 354.07 L 73.79 354.40 L 75.55 354.81 L 77.24 355.29 L 78.87 355.85 L 80.43 356.47 L 81.91 357.18 L 81.91 371.14 L 81.38 371.38 L 79.71 370.52 L 78.06 369.76 L 76.42 369.09 L 74.79 368.51 L 73.17 368.02 L 71.57 367.62 L 69.98 367.30 L 68.40 367.08 L 66.83 366.94 L 65.27 366.90 L 63.75 366.93 L 62.27 367.06 L 60.85 367.28 L 59.47 367.59 L 58.14 367.99 L 56.87 368.48 L 55.65 369.07 L 54.47 369.74 L 53.35 370.51 L 52.27 371.38 L 51.29 372.33 L 50.43 373.38 L 49.65 374.55 L 48.98 375.80 L 48.42 377.16 L 47.96 378.61 L 47.60 380.17 L 47.34 381.83 L 47.20 383.59 L 47.14 385.45 L 47.20 387.31 L 47.35 389.07 L 47.62 390.74 L 48.00 392.31 L 48.48 393.78 L 49.07 395.17 L 49.77 396.45 L 50.58 397.63 L 51.49 398.72 L 52.50 399.71 L 53.61 400.60 L 54.76 401.40 L 55.96 402.12 L 57.23 402.72 L 58.53 403.24 L 59.89 403.67 L 61.31 403.99 L 62.77 404.23 L 64.30 404.37 L 65.87 404.42 L 67.46 404.38 L 69.03 404.25 L 70.60 404.05 L 72.16 403.78 L 73.71 403.41 L 75.26 402.96 L 76.80 402.43 L 78.33 401.83 L 79.86 401.13 L 81.38 400.37 L 81.91 400.54 L 81.91 414.09 L 80.38 414.78 L 78.79 415.42 L 77.15 415.97 L 75.46 416.45 L 73.73 416.86 L 71.94 417.19 L 70.11 417.45 L 68.23 417.63 L 66.30 417.74 L 64.32 417.78 L 61.62 417.69 L 59.03 417.45 L 56.52 417.03 L 54.10 416.43 L 51.79 415.68 L 49.57 414.75 L 47.45 413.66 L 45.43 412.40 L 43.49 410.97 L 41.65 409.37 L 39.95 407.62 L 38.43 405.73 L 37.08 403.71 L 35.92 401.55 L 34.94 399.24 L 34.13 396.81 L 33.51 394.23 L 33.06 391.53 L 32.79 388.67 L 32.70 385.69 L 32.79 382.70 L 33.06 379.86 L 33.51 377.14 L 34.13 374.56 L 34.94 372.12 L 35.92 369.81 L 37.08 367.65 L 38.43 365.61 L 39.95 363.71 L 41.65 361.95 L 43.49 360.34 L 45.41 358.90 L 47.41 357.63 L 49.51 356.53 L 51.70 355.60 L 53.98 354.83 L 56.34 354.24 L 58.80 353.82 L 61.33 353.56 M 106.01 330.22 Z L 106.01 359.03 L 107.75 357.98 L 109.51 357.05 L 111.30 356.22 L 113.12 355.52 L 114.96 354.91 L 116.84 354.41 L 118.75 354.03 L 120.68 353.76 L 122.63 353.59 L 124.62 353.54 L 126.59 353.60 L 128.49 353.78 L 130.32 354.07 L 132.07 354.45 L 133.75 354.95 L 135.36 355.57 L 136.90 356.28 L 138.37 357.11 L 139.76 358.04 L 141.09 359.09 L 142.31 360.24 L 143.40 361.49 L 144.37 362.87 L 145.20 364.35 L 145.91 365.93 L 146.48 367.63 L 146.92 369.43 L 147.24 371.34 L 147.42 373.36 L 147.47 375.49 L 147.47 416.59 L 133.51 416.59 L 133.51 379.61 L 133.47 378.33 L 133.36 377.14 L 133.16 376.01 L 132.88 374.94 L 132.53 373.95 L 132.10 373.03 L 131.58 372.17 L 130.99 371.38 L 130.33 370.66 L 129.57 370.00 L 128.77 369.42 L 127.91 368.88 L 126.99 368.42 L 126.00 368.02 L 124.97 367.68 L 123.88 367.40 L 122.71 367.18 L 121.50 367.02 L 120.23 366.93 L 118.90 366.90 L 117.54 366.94 L 116.21 367.05 L 114.88 367.24 L 113.58 367.51 L 112.27 367.86 L 111.00 368.27 L 109.73 368.77 L 108.48 369.35 L 107.24 369.99 L 106.01 370.72 L 106.01 416.59 L 92.05 416.59 L 92.05 331.41 L 103.86 330.22 M 194.35 370.18 Z L 193.68 369.55 L 192.97 368.98 L 192.24 368.48 L 191.47 368.05 L 190.69 367.69 L 189.88 367.40 L 189.04 367.17 L 188.17 367.01 L 187.29 366.92 L 186.36 366.90 L 185.45 366.94 L 184.54 367.05 L 183.67 367.22 L 182.80 367.45 L 181.97 367.75 L 181.15 368.10 L 180.35 368.53 L 179.57 369.02 L 178.82 369.57 L 178.07 370.18 L 177.35 370.86 L 176.69 371.59 L 176.07 372.40 L 175.50 373.26 L 174.99 374.19 L 174.52 375.18 L 174.09 376.24 L 173.72 377.36 L 173.40 378.54 L 173.12 379.79 L 198.11 379.79 L 198.00 378.56 L 197.83 377.40 L 197.61 376.29 L 197.32 375.24 L 196.97 374.25 L 196.56 373.32 L 196.10 372.45 L 195.58 371.63 L 195.00 370.88 M 190.12 417.78 Z L 187.45 417.69 L 184.88 417.45 L 182.39 417.03 L 179.99 416.44 L 177.67 415.70 L 175.44 414.77 L 173.30 413.69 L 171.25 412.44 L 169.28 411.01 L 167.39 409.43 L 165.65 407.69 L 164.09 405.82 L 162.71 403.82 L 161.52 401.67 L 160.50 399.39 L 159.68 396.99 L 159.04 394.44 L 158.57 391.76 L 158.31 388.94 L 158.21 385.99 L 158.30 383.04 L 158.54 380.20 L 158.95 377.51 L 159.54 374.93 L 160.28 372.49 L 161.20 370.17 L 162.27 367.99 L 163.51 365.93 L 164.93 363.99 L 166.50 362.19 L 168.19 360.53 L 169.94 359.05 L 171.75 357.75 L 173.62 356.61 L 175.53 355.66 L 177.52 354.87 L 179.57 354.27 L 181.68 353.83 L 183.85 353.57 L 186.06 353.48 L 187.02 353.49 L 187.96 353.54 L 188.90 353.61 L 189.82 353.72 L 190.74 353.85 L 191.64 354.02 L 192.54 354.21 L 193.44 354.43 L 194.31 354.68 L 195.19 354.97 L 196.50 355.46 L 197.75 356.01 L 198.96 356.62 L 200.10 357.30 L 201.18 358.04 L 202.22 358.85 L 203.20 359.72 L 204.13 360.66 L 204.99 361.66 L 205.81 362.73 L 206.77 364.17 L 207.64 365.71 L 208.40 367.35 L 209.06 369.08 L 209.61 370.91 L 210.07 372.84 L 210.43 374.86 L 210.68 376.98 L 210.83 379.20 L 210.88 381.52 L 210.88 390.82 L 173.30 390.82 L 173.66 392.19 L 174.08 393.49 L 174.57 394.71 L 175.14 395.85 L 175.76 396.92 L 176.46 397.91 L 177.22 398.83 L 178.05 399.68 L 178.95 400.45 L 179.92 401.14 L 180.95 401.77 L 182.03 402.32 L 183.14 402.81 L 184.31 403.24 L 185.53 403.60 L 186.80 403.90 L 188.11 404.12 L 189.46 404.29 L 190.87 404.39 L 192.33 404.42 L 193.79 404.38 L 195.25 404.25 L 196.72 404.05 L 198.20 403.78 L 199.68 403.41 L 201.17 402.96 L 202.67 402.43 L 204.17 401.83 L 205.67 401.13 L 207.18 400.37 L 207.72 400.54 L 207.72 414.09 L 206.18 414.78 L 204.59 415.42 L 202.95 415.97 L 201.26 416.45 L 199.53 416.86 L 197.74 417.19 L 195.91 417.45 L 194.04 417.63 L 192.11 417.74 M 251.38 353.48 Z L 253.49 353.52 L 255.52 353.63 L 257.48 353.81 L 259.38 354.07 L 261.21 354.40 L 262.97 354.81 L 264.66 355.29 L 266.29 355.85 L 267.85 356.47 L 269.34 357.18 L 269.34 371.14 L 268.80 371.38 L 267.14 370.52 L 265.49 369.76 L 263.85 369.09 L 262.22 368.51 L 260.60 368.02 L 259.00 367.62 L 257.41 367.30 L 255.82 367.08 L 254.25 366.94 L 252.69 366.90 L 251.17 366.93 L 249.69 367.06 L 248.27 367.28 L 246.90 367.59 L 245.56 367.99 L 244.29 368.48 L 243.07 369.07 L 241.90 369.74 L 240.77 370.51 L 239.69 371.38 L 238.71 372.33 L 237.85 373.38 L 237.07 374.55 L 236.41 375.80 L 235.84 377.16 L 235.38 378.61 L 235.03 380.17 L 234.77 381.83 L 234.62 383.59 L 234.56 385.45 L 234.62 387.31 L 234.78 389.07 L 235.05 390.74 L 235.42 392.31 L 235.90 393.78 L 236.50 395.17 L 237.19 396.45 L 238.00 397.63 L 238.91 398.72 L 239.93 399.71 L 241.03 400.60 L 242.18 401.40 L 243.39 402.12 L 244.65 402.72 L 245.95 403.24 L 247.31 403.67 L 248.74 403.99 L 250.20 404.23 L 251.72 404.37 L 253.29 404.42 L 254.88 404.38 L 256.45 404.25 L 258.02 404.05 L 259.58 403.78 L 261.13 403.41 L 262.68 402.96 L 264.23 402.43 L 265.76 401.83 L 267.29 401.13 L 268.80 400.37 L 269.34 400.54 L 269.34 414.09 L 267.80 414.78 L 266.21 415.42 L 264.57 415.97 L 262.88 416.45 L 261.15 416.86 L 259.36 417.19 L 257.53 417.45 L 255.66 417.63 L 253.73 417.74 L 251.74 417.78 L 249.04 417.69 L 246.45 417.45 L 243.94 417.03 L 241.53 416.43 L 239.21 415.68 L 236.99 414.75 L 234.88 413.66 L 232.85 412.40 L 230.91 410.97 L 229.07 409.37 L 227.37 407.62 L 225.85 405.73 L 224.51 403.71 L 223.34 401.55 L 222.36 399.24 L 221.55 396.81 L 220.93 394.23 L 220.48 391.53 L 220.21 388.67 L 220.12 385.69 L 220.21 382.70 L 220.48 379.86 L 220.93 377.14 L 221.55 374.56 L 222.36 372.12 L 223.34 369.81 L 224.51 367.65 L 225.85 365.61 L 227.37 363.71 L 229.07 361.95 L 230.91 360.34 L 232.83 358.90 L 234.84 357.63 L 236.93 356.53 L 239.12 355.60 L 241.40 354.83 L 243.76 354.24 L 246.22 353.82 L 248.76 353.56 M 293.43 330.22 Z L 293.43 381.28 L 315.92 354.67 L 332.33 354.67 L 308.35 383.19 L 309.13 384.32 L 310.00 385.49 L 310.94 386.71 L 311.98 387.95 L 313.09 389.22 L 314.29 390.53 L 315.57 391.89 L 316.94 393.27 L 318.39 394.68 L 319.92 396.13 L 321.47 397.54 L 322.97 398.83 L 324.42 400.02 L 325.82 401.08 L 327.17 402.04 L 328.47 402.87 L 329.72 403.60 L 330.92 404.20 L 332.07 404.70 L 333.16 405.08 L 327.26 417.78 L 326.01 417.64 L 324.70 417.34 L 323.33 416.87 L 321.89 416.24 L 320.39 415.46 L 318.83 414.50 L 317.20 413.39 L 315.51 412.12 L 313.75 410.68 L 311.93 409.07 L 310.52 407.80 L 309.12 406.48 L 307.72 405.10 L 306.33 403.66 L 304.94 402.17 L 303.55 400.61 L 302.16 399.01 L 300.78 397.35 L 299.41 395.63 L 298.03 393.86 L 293.43 399.47 L 293.43 416.59 L 279.48 416.59 L 279.48 331.41 L 291.64 330.22 M 356.66 330.22 Z L 356.66 416.59 L 342.71 416.59 L 342.71 331.41 L 354.87 330.22 M 370.98 354.67 Z L 384.94 354.67 L 384.94 416.59 L 370.98 416.59 M 383.81 344.17 Z L 383.31 344.62 L 382.79 345.03 L 382.25 345.39 L 381.69 345.70 L 381.11 345.96 L 380.50 346.17 L 379.89 346.34 L 379.25 346.46 L 378.59 346.53 L 377.90 346.56 L 377.22 346.53 L 376.57 346.46 L 375.92 346.35 L 375.31 346.18 L 374.71 345.97 L 374.14 345.73 L 373.59 345.42 L 373.06 345.07 L 372.54 344.67 L 372.05 344.23 L 371.61 343.76 L 371.20 343.26 L 370.84 342.73 L 370.53 342.19 L 370.26 341.62 L 370.06 341.03 L 369.89 340.42 L 369.77 339.78 L 369.70 339.12 L 369.67 338.45 L 369.70 337.76 L 369.77 337.11 L 369.89 336.47 L 370.06 335.85 L 370.26 335.26 L 370.53 334.68 L 370.84 334.13 L 371.20 333.60 L 371.61 333.09 L 372.05 332.60 L 372.54 332.14 L 373.06 331.74 L 373.59 331.38 L 374.14 331.07 L 374.71 330.81 L 375.31 330.59 L 375.92 330.42 L 376.57 330.31 L 377.22 330.24 L 377.90 330.22 L 378.59 330.24 L 379.25 330.32 L 379.89 330.43 L 380.50 330.60 L 381.11 330.82 L 381.69 331.09 L 382.25 331.41 L 382.79 331.78 L 383.31 332.19 L 383.81 332.66 L 384.26 333.16 L 384.67 333.68 L 385.03 334.21 L 385.34 334.76 L 385.60 335.33 L 385.81 335.91 L 385.98 336.52 L 386.10 337.15 L 386.17 337.79 L 386.19 338.45 L 386.17 339.10 L 386.10 339.74 L 385.98 340.37 L 385.81 340.96 L 385.60 341.55 L 385.34 342.11 L 385.03 342.65 L 384.67 343.18 L 384.26 343.69 M 417.81 402.75 Z L 418.37 402.37 L 418.88 401.98 L 419.33 401.55 L 419.72 401.09 L 420.04 400.60 L 420.31 400.09 L 420.52 399.54 L 420.67 398.97 L 420.76 398.37 L 420.79 397.74 L 420.77 397.10 L 420.71 396.50 L 420.60 395.91 L 420.45 395.36 L 420.25 394.82 L 420.02 394.30 L 419.75 393.81 L 419.42 393.35 L 419.05 392.91 L 418.64 392.49 L 418.15 392.08 L 417.55 391.67 L 416.81 391.25 L 415.97 390.82 L 414.99 390.38 L 413.90 389.95 L 412.69 389.51 L 411.35 389.05 L 409.90 388.59 L 408.32 388.14 L 406.74 387.63 L 405.25 387.05 L 403.85 386.42 L 402.55 385.72 L 401.33 384.96 L 400.22 384.13 L 399.20 383.25 L 398.27 382.29 L 397.44 381.28 L 396.69 380.20 L 396.32 379.57 L 395.98 378.90 L 395.69 378.18 L 395.44 377.41 L 395.22 376.60 L 395.04 375.76 L 394.90 374.86 L 394.80 373.92 L 394.74 372.94 L 394.72 371.91 L 394.79 370.13 L 394.97 368.44 L 395.27 366.84 L 395.70 365.32 L 396.24 363.90 L 396.92 362.57 L 397.70 361.32 L 398.62 360.17 L 399.65 359.11 L 400.81 358.13 L 402.04 357.25 L 403.32 356.45 L 404.64 355.76 L 406.03 355.15 L 407.45 354.64 L 408.92 354.23 L 410.44 353.90 L 412.01 353.67 L 413.63 353.52 L 415.30 353.48 L 416.97 353.50 L 418.60 353.57 L 420.18 353.69 L 421.71 353.85 L 423.20 354.06 L 424.64 354.32 L 426.03 354.61 L 427.37 354.97 L 428.66 355.36 L 429.92 355.81 L 429.92 368.33 L 429.20 368.87 L 428.17 368.39 L 427.14 367.97 L 426.12 367.59 L 425.10 367.27 L 424.09 366.99 L 423.09 366.76 L 422.08 366.58 L 421.09 366.46 L 420.10 366.38 L 419.12 366.36 L 418.16 366.37 L 417.25 366.42 L 416.38 366.49 L 415.55 366.59 L 414.76 366.72 L 414.03 366.88 L 413.32 367.06 L 412.67 367.28 L 412.06 367.52 L 411.48 367.80 L 410.96 368.08 L 410.48 368.40 L 410.06 368.73 L 409.69 369.07 L 409.39 369.44 L 409.14 369.81 L 408.94 370.21 L 408.80 370.62 L 408.71 371.05 L 408.68 371.49 L 408.71 371.96 L 408.77 372.40 L 408.87 372.83 L 408.99 373.23 L 409.15 373.61 L 409.34 373.97 L 409.55 374.31 L 409.81 374.63 L 410.09 374.91 L 410.41 375.19 L 410.77 375.45 L 411.15 375.71 L 411.56 375.96 L 412.01 376.22 L 412.49 376.46 L 412.99 376.70 L 413.54 376.94 L 414.12 377.17 L 414.72 377.41 L 415.36 377.64 L 421.56 379.79 L 424.02 380.76 L 426.21 381.90 L 428.14 383.22 L 429.82 384.70 L 431.23 386.35 L 432.39 388.16 L 433.30 390.14 L 433.94 392.28 L 434.32 394.60 L 434.45 397.08 L 434.40 399.07 L 434.20 400.96 L 433.86 402.76 L 433.39 404.45 L 432.77 406.04 L 432.01 407.54 L 431.12 408.94 L 430.08 410.24 L 428.91 411.43 L 427.59 412.53 L 426.18 413.53 L 424.72 414.42 L 423.20 415.21 L 421.61 415.89 L 419.98 416.47 L 418.30 416.94 L 416.56 417.31 L 414.76 417.58 L 412.92 417.73 L 411.01 417.78 L 409.11 417.74 L 407.27 417.61 L 405.49 417.40 L 403.77 417.11 L 402.11 416.72 L 400.51 416.25 L 398.98 415.71 L 397.50 415.07 L 396.08 414.35 L 394.72 413.55 L 394.72 400.49 L 395.20 400.13 L 396.80 400.95 L 398.37 401.69 L 399.94 402.34 L 401.49 402.91 L 403.03 403.39 L 404.55 403.79 L 406.08 404.08 L 407.58 404.30 L 409.06 404.43 L 410.53 404.48 L 411.37 404.47 L 412.20 404.43 L 412.99 404.35 L 413.76 404.23 L 414.50 404.07 L 415.21 403.89 L 415.91 403.66 L 416.56 403.39 L 417.20 403.09 M 463.08 400.19 Z L 463.56 400.98 L 464.14 401.69 L 464.79 402.31 L 465.55 402.86 L 466.39 403.32 L 467.34 403.70 L 468.37 403.98 L 469.50 404.19 L 470.72 404.32 L 472.03 404.36 L 473.38 404.34 L 474.72 404.28 L 476.05 404.18 L 477.35 404.04 L 478.64 403.87 L 479.91 403.66 L 481.18 403.40 L 482.42 403.10 L 483.64 402.76 L 484.85 402.39 L 487.30 415.46 L 486.73 415.64 L 486.11 415.81 L 485.44 415.97 L 484.73 416.14 L 483.96 416.30 L 483.15 416.46 L 482.29 416.62 L 481.38 416.77 L 480.43 416.92 L 479.43 417.07 L 478.42 417.20 L 477.44 417.33 L 476.48 417.44 L 475.56 417.53 L 474.65 417.60 L 473.79 417.66 L 472.95 417.71 L 472.14 417.75 L 471.35 417.77 L 470.60 417.78 L 468.65 417.72 L 466.78 417.57 L 464.98 417.30 L 463.27 416.92 L 461.64 416.44 L 460.09 415.85 L 458.62 415.15 L 457.22 414.34 L 455.90 413.43 L 454.67 412.42 L 453.33 411.08 L 452.12 409.63 L 451.05 408.06 L 450.13 406.36 L 449.35 404.54 L 448.72 402.59 L 448.22 400.52 L 447.86 398.33 L 447.65 396.01 L 447.57 393.57 L 447.57 368.09 L 439.82 368.09 L 439.82 354.67 L 447.57 354.67 L 447.57 339.16 L 459.74 337.97 L 461.53 337.97 L 461.53 354.67 L 479.96 354.67 L 479.96 368.09 L 461.53 368.09 L 461.53 389.21 L 461.55 390.78 L 461.60 392.24 L 461.67 393.61 L 461.78 394.86 L 461.92 396.01 L 462.10 397.06 L 462.30 397.99 L 462.52 398.82 L 462.79 399.56"/>
  </g>
<svg viewBox="0 0 440.02 440.02" x="180.0" y="-110.0" width="35.0%">
<g>	<g>		<polygon points="327.327,359.861 60,359.861 60,92.532 268.65,92.532 328.651,32.532 0,32.532 0,419.86 387.327,419.86			387.327,171.846 327.327,231.847 		" style = "fill:white"/>		<polygon points="125.735,173.171 83.308,215.597 185.158,317.448 440.02,62.585 397.593,20.159 185.158,232.595 		" style = "fill:white" />	</g></g><g></g><g></g><g></g><g></g><g></g><g></g><g></g><g></g><g></g><g></g><g></g><g></g><g></g><g></g><g></g>
</svg>
</svg>
